<svg id="eCg6ocKDAp71" 
xmlns="http://www.w3.org/2000/svg" 
xmlns:xlink="http://www.w3.org/1999/xlink" 
viewBox="0 0 300 125" 
shape-rendering="geometricPrecision" 
text-rendering="geometricPrecision">
      width={900}
      height={900}
      fill="hsl(var(--nextui-default-900))"
      fontFamily="Arial"
      fontWeight={900}
      fontSize={36}
      className="bg-gray-300"
  <g transform="matrix(.99845 0 0 1.001177 0.224379-77.954205)">
    <text dx="0" dy="0" font-family="&quot;eCg6ocKDAp71:::Inter&quot;" font-size="36" font-weight="900" transform="translate(10.742967 144.917886)">
          <tspan x="36" y="0">ONOVAN</tspan>
 <tspan x="36" y="36">
            COURTNEY
          </tspan>    </text>
    <g transform="matrix(.316688 0 0 0.316699-20.1447 68.291597)">
      <path d="M-0.000001,-599.078106c0,0,16.035997,0,16.035997,0l.000001,669.458313c0,0-16.035997,0-16.035997,0l-.000001-669.458313Z" transform="matrix(1.338928 0 0 0.095376 156.43544 129.37422)" stroke-width="0"/>
      <path d="M-0.000001,-598.463193c0,0,16.035997,0,16.035997,0l.000001,668.8434c0,0-16.035997,0-16.035997,0l-.000001-668.8434Z" transform="matrix(1.338928 0 0 0.095474 122.445796 129.374223)" stroke-width="0"/>
      <path d="M100,156.20776c0,0,24.479862,0,49.21572,0c25.258674,0,50.78428,0,50.78428,0s0,26.71102,0,26.71102-1.02161,0-1.02161,13.61806c0,19.41303-21.150526,38.741988-48.978391,38.741988-27.632824,0-48.878439-19.328958-48.878439-38.741988c0-13.61806-1.12156-13.61806-1.12156-13.61806v-26.71102Zm23.70598,40.32908c0,2.91436.178209,19.41303,26.37264,19.41303s26.19443-16.49867,26.19443-19.41303c0-13.61806,0-13.61806,0-13.61806s-52.56707,0-52.56707,0s0,0,0,13.61806Z" transform="matrix(.965926-.258819 0.258819 0.965926-34.520209 47.20402)" stroke-width="0"/>
    </g>
  </g>
</svg>
